<svg width="32" height="32" viewBox="0 0 32 32" fill="none" xmlns="http://www.w3.org/2000/svg">
<g clip-path="url(#clip0)">
<path d="M15.9996 15.0769C19.2193 15.0769 21.8386 12.4575 21.8386 9.23788C21.8386 6.01819 19.2193 3.39882 15.9996 3.39882C12.78 3.39882 10.1606 6.01819 10.1606 9.23788C10.1606 12.4575 12.78 15.0769 15.9996 15.0769ZM15.9996 4.33638C18.7023 4.33638 20.9011 6.53525 20.9011 9.23794C20.9011 11.9406 18.7023 14.1394 15.9996 14.1394C13.297 14.1394 11.0981 11.9406 11.0981 9.23788C11.0981 6.53519 13.297 4.33638 15.9996 4.33638Z" fill="black"/>
<path d="M24.5629 11.1926C24.3139 11.1212 24.0545 11.2661 23.9837 11.5151C23.7719 12.2592 24.1803 11.2843 16.6655 27.7264C16.5431 27.9943 16.2942 28.1542 15.9997 28.1542C15.7052 28.1542 15.4562 27.9943 15.3338 27.7264L12.1974 20.864C12.0897 20.6284 11.8115 20.5248 11.5762 20.6325C11.3407 20.7401 11.2371 21.0183 11.3447 21.2537L13.2587 25.4414C11.2247 26.0177 9.94067 27.1979 9.94067 28.5382C9.94067 30.4795 12.6021 32 15.9997 32C19.3972 32 22.0587 30.4795 22.0587 28.5383C22.0587 27.1979 20.7746 26.0178 18.7407 25.4414C25.1891 11.3324 24.633 12.6585 24.8854 11.7718C24.9562 11.5227 24.8119 11.2635 24.5629 11.1926ZM18.3461 26.3048C20.0209 26.7449 21.1212 27.6189 21.1212 28.5383C21.1212 29.9066 18.7758 31.0625 15.9997 31.0625C13.2235 31.0625 10.8782 29.9066 10.8782 28.5383C10.8782 27.6189 11.9785 26.7449 13.6532 26.3048L14.4811 28.1161C14.7562 28.7179 15.338 29.0916 15.9997 29.0916C16.6614 29.0916 17.2432 28.7179 17.5182 28.1161L18.3461 26.3048Z" fill="black"/>
<path d="M15.9998 0C10.9061 0 6.76196 4.14413 6.76196 9.23794C6.76196 10.5618 7.0834 11.9295 7.42009 12.6664C7.80409 13.5066 9.9854 18.2793 10.4356 19.2641C10.5433 19.4997 10.8215 19.6032 11.0568 19.4956C11.2923 19.3879 11.3958 19.1098 11.2883 18.8744C10.793 17.7909 11.373 19.06 8.27784 12.2876C7.89409 11.3169 7.69953 10.2909 7.69953 9.23787C7.69946 4.66106 11.423 0.9375 15.9998 0.9375C20.6578 0.9375 24.4281 4.79313 24.2969 9.47388C24.2896 9.73269 24.4935 9.94831 24.7523 9.95556C25.0113 9.96138 25.2268 9.75894 25.234 9.50012C25.38 4.29331 21.1858 0 15.9998 0V0Z" fill="black"/>
</g>
<defs>
<clipPath id="clip0">
<rect width="32" height="32" fill="white"/>
</clipPath>
</defs>
</svg>
