<svg width="32" height="32" viewBox="0 0 32 32" fill="none" xmlns="http://www.w3.org/2000/svg">
<g clip-path="url(#clip0)">
<path d="M22.1554 18.7341C20.4999 17.1365 18.3139 16.2566 16.0001 16.2566C13.6859 16.2566 11.4996 17.1367 9.84411 18.7348C9.53869 19.0296 9.25256 19.3481 8.99353 19.6812C8.38708 20.4621 8.45959 21.5824 9.16174 22.2896C9.16296 22.2908 9.16418 22.2921 9.1654 22.2933C9.53821 22.6668 10.0333 22.8725 10.5592 22.8725C11.1769 22.8725 11.7516 22.5917 12.1359 22.1017C12.2562 21.9481 12.3878 21.7996 12.5267 21.6607C13.4523 20.7334 14.6857 20.2226 16.0001 20.2226C17.3143 20.2226 18.548 20.7334 19.4735 21.6605C19.612 21.7994 19.7435 21.9479 19.8644 22.1017C20.2487 22.5915 20.8231 22.8725 21.4408 22.8725H21.4411C21.9669 22.8725 22.4621 22.6668 22.8346 22.2933C22.8361 22.2921 22.8373 22.2908 22.8385 22.2896C23.5407 21.5824 23.6132 20.4621 23.0065 19.6812C22.7475 19.3478 22.4611 19.0293 22.1554 18.7341ZM22.172 21.6289C22.171 21.6299 22.1701 21.6309 22.1693 21.6318C21.9738 21.8263 21.7152 21.9334 21.4408 21.9334C21.1127 21.9334 20.8068 21.7833 20.6012 21.5213C20.4574 21.338 20.3009 21.1614 20.1361 20.9966C19.0338 19.8916 17.5648 19.2835 16.0001 19.2835C14.4352 19.2835 12.9664 19.8919 11.8639 20.9966C11.6986 21.1622 11.5424 21.3385 11.3988 21.5215C11.1935 21.7833 10.8876 21.9334 10.5592 21.9334C10.2848 21.9334 10.0265 21.8263 9.83093 21.6318C9.82995 21.6311 9.82898 21.6301 9.82825 21.6291C9.45642 21.2566 9.41565 20.6673 9.73327 20.2583C9.96496 19.9604 10.2211 19.6754 10.4945 19.4112C11.9745 17.9826 13.9298 17.1959 16.0001 17.1959C18.0702 17.1959 20.0253 17.9824 21.505 19.4107C21.7787 19.6749 22.0351 19.9601 22.2667 20.2583C22.5846 20.6673 22.5438 21.2566 22.172 21.6289Z" fill="black"/>
<path d="M16 22.3115C15.2459 22.3115 14.5366 22.6058 14.0034 23.14C13.4702 23.6743 13.1765 24.3847 13.1765 25.1403C13.1765 25.8959 13.4702 26.6065 14.0034 27.1408C14.5366 27.675 15.2459 27.9693 16 27.9693C16.7542 27.9693 17.4631 27.675 17.9964 27.1408C19.0972 26.0378 19.0972 24.243 17.9964 23.14C17.4631 22.6058 16.7542 22.3115 16 22.3115ZM17.3335 26.4766C16.9773 26.8335 16.5037 27.0302 16 27.0302C15.4961 27.0302 15.0225 26.8335 14.6663 26.4766C14.3101 26.1197 14.1138 25.6452 14.1138 25.1405C14.1138 24.6356 14.3101 24.1611 14.6663 23.8042C15.0225 23.4473 15.4961 23.2506 16 23.2506C16.5037 23.2506 16.9773 23.4473 17.3335 23.8042C18.0689 24.541 18.0689 25.7399 17.3335 26.4766Z" fill="black"/>
<path d="M31.4825 10.9565C31.2728 10.7268 31.054 10.4976 30.8324 10.2755C27.7818 7.22023 23.9434 5.20213 19.732 4.43966C15.6155 3.69455 11.42 4.18721 7.5989 5.86505C7.36184 5.96926 7.25369 6.24616 7.35769 6.48369C7.46169 6.72121 7.73806 6.82958 7.97512 6.72537C15.5721 3.38976 24.284 5.04411 30.1695 10.9399C30.3814 11.1522 30.5907 11.3712 30.7911 11.5906C31.1664 12.0013 31.1497 12.6339 30.7535 13.0309C30.5492 13.2354 30.2772 13.3455 29.9891 13.3381C29.7042 13.3318 29.4417 13.2131 29.2506 13.0035C29.0706 12.8066 28.8836 12.6106 28.6947 12.4213C25.3116 9.03163 20.8035 7.1652 16 7.1652C15.9998 7.1652 15.9991 7.1652 15.9988 7.1652C11.1949 7.16544 6.6863 9.03286 3.30372 12.423C3.11476 12.6126 2.92823 12.8078 2.74952 13.0035C2.55812 13.2131 2.29591 13.332 2.01099 13.3381C1.72095 13.345 1.45093 13.2354 1.24659 13.0309C0.850347 12.6339 0.833745 12.0013 1.20875 11.5908C1.4087 11.3719 1.61744 11.1535 1.82887 10.9416C3.19972 9.56784 4.74757 8.40517 6.42873 7.48589C6.65603 7.36162 6.73977 7.0764 6.61574 6.84866C6.49172 6.62116 6.20705 6.53702 5.97976 6.66153C4.21974 7.62361 2.60011 8.84034 1.16578 10.2775C0.94483 10.4991 0.726567 10.7276 0.517338 10.9565C-0.197264 11.7388 -0.168211 12.9416 0.583744 13.695C0.959966 14.0718 1.45631 14.2777 1.98634 14.2777C2.00123 14.2777 2.01661 14.2775 2.03175 14.2772C2.57496 14.2652 3.07545 14.038 3.44117 13.6376C3.61061 13.4519 3.78737 13.2667 3.96657 13.0872C7.17214 9.87434 11.4453 8.10477 15.9988 8.10453H16C20.5528 8.10453 24.826 9.87337 28.0318 13.0854C28.211 13.265 28.3885 13.4509 28.5589 13.6376C28.9246 14.038 29.4251 14.2652 29.9683 14.2772C30.5094 14.289 31.035 14.0769 31.4164 13.695C32.1681 12.9416 32.1974 11.7388 31.4825 10.9565Z" fill="black"/>
<path d="M26.2929 14.3089C23.7531 11.8832 20.4182 10.4319 16.902 10.222C16.6432 10.2068 16.4216 10.404 16.4062 10.6628C16.3908 10.9219 16.5878 11.1442 16.8464 11.1596C20.1415 11.3563 23.2665 12.7159 25.6462 14.9886C25.9475 15.2766 26.2387 15.5801 26.5117 15.891C26.8757 16.3057 26.8564 16.9353 26.4677 17.3248C26.2619 17.5307 25.9892 17.6391 25.698 17.6298C25.405 17.6202 25.1364 17.4933 24.9421 17.2717C24.7282 17.028 24.5012 16.7898 24.2675 16.5633C22.0456 14.4118 19.1096 13.2271 16.0002 13.2269H15.9999C12.8908 13.2269 9.95474 14.4116 7.73281 16.5628C7.49843 16.7895 7.27138 17.028 7.05752 17.2717C6.86318 17.4933 6.59487 17.6202 6.30165 17.6298C6.01113 17.6396 5.73769 17.5307 5.53188 17.3245C5.14369 16.9356 5.12172 16.3086 5.48207 15.8976C5.66444 15.6895 5.85561 15.484 6.05043 15.2868C8.47036 12.8343 11.7035 11.3688 15.1542 11.1604C15.4125 11.1447 15.6093 10.9221 15.5939 10.6633C15.5783 10.4045 15.3564 10.2066 15.0978 10.2227C11.4162 10.4451 7.96645 12.0092 5.38393 14.6264C5.17641 14.8367 4.97255 15.0559 4.77772 15.2778C4.09217 16.0598 4.13246 17.2506 4.86903 17.9886C5.24452 18.3646 5.73818 18.5694 6.26601 18.5694C6.28798 18.5694 6.30995 18.5691 6.33193 18.5684C6.87856 18.5508 7.3998 18.3042 7.76162 17.8918C7.95864 17.667 8.16811 17.4471 8.38418 17.2382C12.5839 13.1724 19.4169 13.1726 23.6162 17.2386C23.8317 17.4473 24.041 17.667 24.2382 17.8918C24.6 18.3042 25.1213 18.5508 25.6679 18.5684C26.2209 18.5862 26.7397 18.3803 27.1306 17.9886C27.8679 17.2499 27.905 16.0559 27.2155 15.2704C26.9245 14.9392 26.6142 14.6156 26.2929 14.3089Z" fill="black"/>
</g>
<defs>
<clipPath id="clip0">
<rect width="32" height="32" fill="white"/>
</clipPath>
</defs>
</svg>
