<svg width="32" height="32" viewBox="0 0 32 32" fill="none" xmlns="http://www.w3.org/2000/svg">
<g clip-path="url(#clip0)">
<path d="M28.3743 17.259C28.637 17.259 28.8496 17.0461 28.8496 16.7837V12.5068C28.8496 12.2444 28.637 12.0317 28.3743 12.0317H27.2166V10.8911C27.2166 10.6287 27.0039 10.416 26.7415 10.416H18.1875C17.9248 10.416 17.7122 10.6287 17.7122 10.8911V12.0317H15.9407V11.3665H16.7961C17.0586 11.3665 17.2715 11.1536 17.2715 10.8911V4.71338H18.6799C18.9424 4.71338 19.155 4.50049 19.155 4.23804C19.155 3.97559 18.9424 3.76294 18.6799 3.76294H17.2715V2.43237C17.2715 2.16968 17.0586 1.95703 16.7961 1.95703H12.6423V0.475342C12.6423 0.212891 12.4294 0 12.167 0H10.21C9.94751 0 9.73486 0.212891 9.73486 0.475342V1.95703H5.58081C5.31836 1.95703 5.10571 2.16968 5.10571 2.43237V3.76294H3.66284C3.40039 3.76294 3.1875 3.97559 3.1875 4.23804C3.1875 4.50049 3.40039 4.71338 3.66284 4.71338H5.10571V6.39258C5.10571 6.65503 5.31836 6.86768 5.58081 6.86768C5.84326 6.86768 6.05615 6.65503 6.05615 6.39258V2.90747H16.3208V3.76294H14.688C14.4255 3.76294 14.2126 3.97559 14.2126 4.23804C14.2126 4.50049 14.4255 4.71338 14.688 4.71338H16.3208V10.416H6.05615V8.29346C6.05615 8.03101 5.84326 7.81836 5.58081 7.81836C5.31836 7.81836 5.10571 8.03101 5.10571 8.29346V10.8914C5.10571 11.1538 5.31836 11.3665 5.58081 11.3665H6.43628V12.0317H5.27856C5.01611 12.0317 4.80322 12.2446 4.80322 12.5071V31.5247C4.80322 31.7871 5.01611 32 5.27856 32H28.3743C28.637 32 28.8496 31.7871 28.8496 31.5247V18.6848C28.8496 18.4224 28.637 18.2097 28.3743 18.2097C28.1118 18.2097 27.8992 18.4224 27.8992 18.6848V31.0496H5.75366V12.9822H27.8992V16.7837C27.8992 17.0461 28.1118 17.259 28.3743 17.259ZM10.6853 1.95703V0.950439H11.6917V1.95703H10.6853ZM7.38672 12.0317V11.3665H14.9902V12.0317H7.38672ZM18.6626 12.0317V11.3665H26.2661V12.0317H18.6626Z" fill="black"/>
<path d="M9.74561 28.5767H23.9072C24.1697 28.5767 24.3826 28.3638 24.3826 28.1013V18.4653C24.3826 18.2029 24.1697 17.99 23.9072 17.99H9.74561C9.48315 17.99 9.27026 18.2029 9.27026 18.4653V28.1013C9.27026 28.3638 9.48315 28.5767 9.74561 28.5767ZM10.2209 18.9404H23.4319V27.626H10.2209V18.9404Z" fill="black"/>
<path d="M21.7148 24.1409H11.9382C11.6758 24.1409 11.4629 24.3538 11.4629 24.6162C11.4629 24.8787 11.6758 25.0913 11.9382 25.0913H21.7148C21.9773 25.0913 22.1899 24.8787 22.1899 24.6162C22.1899 24.3538 21.9773 24.1409 21.7148 24.1409Z" fill="black"/>
<path d="M21.7148 21.4751H11.9382C11.6758 21.4751 11.4629 21.688 11.4629 21.9504C11.4629 22.2129 11.6758 22.4258 11.9382 22.4258H21.7148C21.9773 22.4258 22.1899 22.2129 22.1899 21.9504C22.1899 21.688 21.9773 21.4751 21.7148 21.4751Z" fill="black"/>
<path d="M11.1951 15.4534C11.1951 14.3789 10.321 13.5049 9.24658 13.5049C8.17212 13.5049 7.2981 14.3789 7.2981 15.4534C7.2981 16.5278 8.17212 17.4019 9.24658 17.4019C10.321 17.4019 11.1951 16.5278 11.1951 15.4534ZM9.24658 16.4514C8.69629 16.4514 8.24854 16.0037 8.24854 15.4534C8.24854 14.9031 8.69629 14.4553 9.24658 14.4553C9.79688 14.4553 10.2446 14.9031 10.2446 15.4534C10.2446 16.0037 9.79688 16.4514 9.24658 16.4514Z" fill="black"/>
<path d="M21.3015 15.4534C21.3015 14.3789 20.4275 13.5049 19.353 13.5049C18.2786 13.5049 17.4045 14.3789 17.4045 15.4534C17.4045 16.5278 18.2786 17.4019 19.353 17.4019C20.4275 17.4019 21.3015 16.5278 21.3015 15.4534ZM18.355 15.4534C18.355 14.9031 18.8027 14.4556 19.353 14.4556C19.9033 14.4556 20.3511 14.9031 20.3511 15.4534C20.3511 16.0037 19.9033 16.4514 19.353 16.4514C18.8027 16.4514 18.355 16.0037 18.355 15.4534Z" fill="black"/>
<path d="M16.2483 15.4534C16.2483 14.3789 15.3743 13.5049 14.2998 13.5049C13.2253 13.5049 12.3513 14.3789 12.3513 15.4534C12.3513 16.5278 13.2253 17.4019 14.2998 17.4019C15.3743 17.4019 16.2483 16.5278 16.2483 15.4534ZM13.302 15.4534C13.302 14.9031 13.7495 14.4556 14.2998 14.4556C14.8501 14.4556 15.2979 14.9031 15.2979 15.4534C15.2979 16.0037 14.8501 16.4514 14.2998 16.4514C13.7495 16.4514 13.302 16.0037 13.302 15.4534Z" fill="black"/>
<path d="M26.3547 15.4534C26.3547 14.3789 25.4807 13.5049 24.4062 13.5049C23.3318 13.5049 22.4578 14.3789 22.4578 15.4534C22.4578 16.5278 23.3318 17.4019 24.4062 17.4019C25.4807 17.4019 26.3547 16.5278 26.3547 15.4534ZM23.4082 15.4534C23.4082 14.9031 23.856 14.4556 24.4062 14.4556C24.9565 14.4556 25.4043 14.9031 25.4043 15.4534C25.4043 16.0037 24.9565 16.4514 24.4062 16.4514C23.856 16.4514 23.4082 16.0037 23.4082 15.4534Z" fill="black"/>
</g>
<defs>
<clipPath id="clip0">
<rect width="32" height="32" fill="white"/>
</clipPath>
</defs>
</svg>
