<svg width="32" height="32" viewBox="0 0 32 32" fill="none" xmlns="http://www.w3.org/2000/svg">
<g clip-path="url(#clip0)">
<path d="M14.9368 26.1525C14.8962 26.1525 14.855 26.1481 14.8149 26.14C14.7749 26.1324 14.7356 26.12 14.6982 26.1044C14.6599 26.0887 14.6238 26.0695 14.5901 26.047C14.5557 26.0245 14.5237 25.9982 14.4951 25.9694C14.3787 25.8531 14.3118 25.692 14.3118 25.5277C14.3118 25.4869 14.3162 25.4457 14.3242 25.4056C14.3325 25.3658 14.3442 25.3263 14.3599 25.2889C14.3755 25.2509 14.395 25.2145 14.4175 25.1808C14.4399 25.1464 14.4663 25.1144 14.4949 25.0858C14.5237 25.057 14.5557 25.0306 14.5898 25.0082C14.6238 24.9857 14.6599 24.9664 14.698 24.9508C14.7356 24.9352 14.7749 24.9227 14.8149 24.9144C14.8955 24.8983 14.9788 24.8983 15.0593 24.9144C15.0994 24.9227 15.1387 24.9352 15.176 24.9508C15.2136 24.9664 15.25 24.9857 15.2842 25.0082C15.3181 25.0306 15.3506 25.057 15.3792 25.0858C15.408 25.1146 15.4336 25.1464 15.4568 25.1808C15.4792 25.2145 15.4985 25.2506 15.5142 25.2889C15.5298 25.3263 15.5417 25.3658 15.5498 25.4056C15.5581 25.4457 15.5618 25.4869 15.5618 25.5277C15.5618 25.692 15.4954 25.8531 15.3792 25.9694C15.3503 25.9982 15.3179 26.0245 15.2842 26.047C15.2498 26.0695 15.2136 26.0887 15.176 26.1044C15.1387 26.12 15.0991 26.1324 15.0593 26.14C15.0188 26.1481 14.978 26.1525 14.9368 26.1525Z" fill="black"/>
<path d="M24.6704 16.7634C24.6704 15.3413 23.5134 14.1841 22.0911 14.1841C21.6587 14.1841 21.2466 14.2896 20.8835 14.4812V11.8213C20.8835 10.8865 20.123 10.126 19.188 10.126H5.48242C4.54761 10.126 3.78711 10.8865 3.78711 11.8213V14.4812C3.42383 14.2896 3.01172 14.1841 2.57935 14.1841C1.15723 14.1841 0 15.3413 0 16.7634C0 17.7915 0.62207 18.7146 1.53589 19.1218V27.7642C1.53589 28.1091 1.81567 28.3892 2.16089 28.3892H5.41016C5.75513 28.3892 6.03516 28.1091 6.03516 27.7642V26.1526H12.062C12.4072 26.1526 12.687 25.8728 12.687 25.5276C12.687 25.1826 12.4072 24.9026 12.062 24.9026H2.78589V22.896H21.8845V24.9026H18.0623C17.717 24.9026 17.4373 25.1826 17.4373 25.5276C17.4373 25.8728 17.717 26.1526 18.0623 26.1526H18.6355V27.7642C18.6355 28.1091 18.9153 28.3892 19.2605 28.3892H22.5095C22.8547 28.3892 23.1345 28.1091 23.1345 27.7642V19.1218C24.0483 18.7146 24.6704 17.7915 24.6704 16.7634ZM5.03711 11.8213C5.03711 11.5757 5.23682 11.376 5.48242 11.376H19.188C19.4336 11.376 19.6335 11.5757 19.6335 11.8213V18.8008C19.2209 18.5403 18.7324 18.3892 18.2095 18.3892H6.46118C5.93799 18.3892 5.44946 18.5403 5.03711 18.8008V11.8213ZM4.78516 26.1526V27.1392H2.78589V26.1526H4.78516ZM2.29419 18.0618C1.68921 17.9299 1.25 17.3838 1.25 16.7634C1.25 16.0305 1.84619 15.4341 2.57935 15.4341C3.104 15.4341 3.57031 15.7354 3.78711 16.2078V21.646H2.78589V18.6724C2.78589 18.3787 2.5813 18.1245 2.29419 18.0618ZM5.03711 21.0632C5.03711 20.2781 5.67578 19.6392 6.46118 19.6392H18.2095C18.9946 19.6392 19.6335 20.2781 19.6335 21.0632V21.646H5.03711V21.0632ZM21.8845 27.1392H19.8855V26.1526H21.8845V27.1392ZM22.3765 18.0618C22.0894 18.1245 21.8845 18.3787 21.8845 18.6726V21.646H20.8835V16.208C21.1001 15.7354 21.5664 15.4341 22.0911 15.4341C22.824 15.4341 23.4204 16.0305 23.4204 16.7634C23.4204 17.3838 22.9814 17.9299 22.3765 18.0618Z" fill="black"/>
<path d="M31.997 10.6428L31.3718 4.12793C31.341 3.80713 31.0715 3.5625 30.7495 3.5625H24.8068C24.4848 3.5625 24.2153 3.80713 24.1845 4.12793L23.5593 10.6428C23.5424 10.8181 23.6003 10.9924 23.7189 11.1228C23.8373 11.2532 24.0053 11.3274 24.1813 11.3274H27.1545C27.1538 11.3411 27.153 11.3547 27.153 11.3684V24.9592C25.8591 25.1511 24.7075 25.9314 24.0558 27.0913L23.8498 27.458C23.7409 27.6516 23.7431 27.8882 23.8552 28.0798C23.9672 28.2715 24.1725 28.3892 24.3947 28.3892H31.1616C31.3837 28.3892 31.5891 28.2715 31.7011 28.0798C31.8132 27.8882 31.8154 27.6516 31.7065 27.458L31.5004 27.0913C30.8488 25.9316 29.6972 25.1511 28.403 24.9592V11.3684C28.403 11.3545 28.4025 11.3411 28.4018 11.3274H28.9438L28.9687 13.5527C28.9726 13.8955 29.2517 14.1707 29.5935 14.1707H29.6005C29.9458 14.1667 30.2226 13.884 30.2187 13.5388L30.1938 11.3276H31.375C31.551 11.3276 31.7192 11.2532 31.8376 11.1228C31.956 10.9924 32.0139 10.8181 31.997 10.6428ZM30.0012 27.1392H25.5554C26.1203 26.5254 26.9243 26.1631 27.778 26.1631C28.632 26.1631 29.436 26.5254 30.0012 27.1392ZM24.8693 10.0774L25.3747 4.8125H30.1816L30.687 10.0774H24.8693Z" fill="black"/>
</g>
<defs>
<clipPath id="clip0">
<rect width="32" height="32" fill="white"/>
</clipPath>
</defs>
</svg>
