<svg width="32" height="32" viewBox="0 0 32 32" fill="none" xmlns="http://www.w3.org/2000/svg">
<path d="M31.4839 16H5.67742V14.7692C5.67742 14.606 5.62304 14.4495 5.52625 14.3341C5.42946 14.2187 5.29818 14.1538 5.16129 14.1538H4.64516V12.3077H5.67742V12.9231C5.67742 13.0863 5.7318 13.2428 5.82859 13.3582C5.92538 13.4736 6.05666 13.5385 6.19355 13.5385C6.33043 13.5385 6.46171 13.4736 6.55851 13.3582C6.6553 13.2428 6.70968 13.0863 6.70968 12.9231V10.4615C6.70968 10.2983 6.6553 10.1418 6.55851 10.0264C6.46171 9.91099 6.33043 9.84615 6.19355 9.84615C6.05666 9.84615 5.92538 9.91099 5.82859 10.0264C5.7318 10.1418 5.67742 10.2983 5.67742 10.4615V11.0769H4.64516V3.69231C4.64567 3.03965 4.86335 2.41391 5.25041 1.95241C5.63747 1.49092 6.16229 1.23138 6.70968 1.23077H8.77419C9.32158 1.23138 9.8464 1.49092 10.2335 1.95241C10.6205 2.41391 10.8382 3.03965 10.8387 3.69231V3.74462C10.1176 3.89102 9.46309 4.33663 8.99087 5.00271C8.51864 5.66879 8.25908 6.51245 8.25806 7.38462C8.25806 7.54783 8.31244 7.70435 8.40924 7.81976C8.50603 7.93517 8.63731 8 8.77419 8H13.9355C14.0724 8 14.2036 7.93517 14.3004 7.81976C14.3972 7.70435 14.4516 7.54783 14.4516 7.38462C14.4506 6.51245 14.191 5.66879 13.7188 5.00271C13.2466 4.33663 12.5921 3.89102 11.871 3.74462V3.69231C11.8701 2.71337 11.5435 1.77482 10.963 1.0826C10.3824 0.390382 9.59524 0.00103847 8.77419 0H6.70968C5.88863 0.00103847 5.10146 0.390382 4.52089 1.0826C3.94032 1.77482 3.61377 2.71337 3.6129 3.69231V14.1538H3.09677C2.95989 14.1538 2.82861 14.2187 2.73182 14.3341C2.63502 14.4495 2.58065 14.606 2.58065 14.7692V16H0.516129C0.379243 16 0.247964 16.0648 0.151171 16.1802C0.0543777 16.2956 0 16.4522 0 16.6154V18.4615C0 18.6248 0.0543777 18.7813 0.151171 18.8967C0.247964 19.0121 0.379243 19.0769 0.516129 19.0769H2.06452V26.4615C2.06553 27.3337 2.32509 28.1774 2.79732 28.8434C3.26955 29.5095 3.92405 29.9551 4.64516 30.1015V31.3846C4.64516 31.5478 4.69954 31.7044 4.79633 31.8198C4.89313 31.9352 5.0244 32 5.16129 32C5.29818 32 5.42946 31.9352 5.52625 31.8198C5.62304 31.7044 5.67742 31.5478 5.67742 31.3846V30.1538H26.3226V31.3846C26.3226 31.5478 26.377 31.7044 26.4738 31.8198C26.5705 31.9352 26.7018 32 26.8387 32C26.9756 32 27.1069 31.9352 27.2037 31.8198C27.3005 31.7044 27.3548 31.5478 27.3548 31.3846V30.1015C28.076 29.9551 28.7305 29.5095 29.2027 28.8434C29.6749 28.1774 29.9345 27.3337 29.9355 26.4615V19.0769H31.4839C31.6208 19.0769 31.752 19.0121 31.8488 18.8967C31.9456 18.7813 32 18.6248 32 18.4615V16.6154C32 16.4522 31.9456 16.2956 31.8488 16.1802C31.752 16.0648 31.6208 16 31.4839 16ZM11.3548 4.92308C11.8124 4.92374 12.2569 5.10532 12.6187 5.43939C12.9805 5.77346 13.2392 6.24115 13.3542 6.76923H9.35548C9.4705 6.24115 9.72916 5.77346 10.091 5.43939C10.4527 5.10532 10.8972 4.92374 11.3548 4.92308ZM3.6129 15.3846H4.64516V16H3.6129V15.3846ZM28.9032 26.4615C28.9027 27.1142 28.685 27.7399 28.298 28.2014C27.9109 28.6629 27.3861 28.9225 26.8387 28.9231H5.16129C4.6139 28.9225 4.08908 28.6629 3.70202 28.2014C3.31496 27.7399 3.09729 27.1142 3.09677 26.4615V19.0769H28.9032V26.4615ZM30.9677 17.8462H1.03226V17.2308H30.9677V17.8462Z" fill="black"/>
<path d="M4.64113 21.5374H8.77017C8.90706 21.5374 9.03834 21.4726 9.13513 21.3572C9.23193 21.2418 9.2863 21.0852 9.2863 20.922C9.2863 20.7588 9.23193 20.6023 9.13513 20.4869C9.03834 20.3715 8.90706 20.3066 8.77017 20.3066H4.64113C4.50424 20.3066 4.37296 20.3715 4.27617 20.4869C4.17938 20.6023 4.125 20.7588 4.125 20.922C4.125 21.0852 4.17938 21.2418 4.27617 21.3572C4.37296 21.4726 4.50424 21.5374 4.64113 21.5374Z" fill="black"/>
<path d="M10.3286 21.5374H10.8448C10.9816 21.5374 11.1129 21.4726 11.2097 21.3572C11.3065 21.2418 11.3609 21.0852 11.3609 20.922C11.3609 20.7588 11.3065 20.6023 11.2097 20.4869C11.1129 20.3715 10.9816 20.3066 10.8448 20.3066H10.3286C10.1917 20.3066 10.0605 20.3715 9.96367 20.4869C9.86688 20.6023 9.8125 20.7588 9.8125 20.922C9.8125 21.0852 9.86688 21.2418 9.96367 21.3572C10.0605 21.4726 10.1917 21.5374 10.3286 21.5374Z" fill="black"/>
</svg>
