<svg width="32" height="32" viewBox="0 0 32 32" fill="none" xmlns="http://www.w3.org/2000/svg">
<g clip-path="url(#clip0)">
<path d="M29.7509 6.2937H7.60859C7.34916 6.2937 7.13884 6.50396 7.13884 6.76345C7.13884 7.02294 7.34916 7.2332 7.60859 7.2332H29.7509C30.4731 7.2332 31.0606 7.8207 31.0606 8.54287V18.5449C31.0606 19.267 30.4731 19.8545 29.7509 19.8545H28.6261V16.7938C28.6261 16.5343 28.4157 16.3241 28.1563 16.3241H3.84369C3.58426 16.3241 3.37394 16.5343 3.37394 16.7938V19.8545H2.24917C1.527 19.8545 0.939502 19.267 0.939502 18.5449V8.54287C0.939502 7.8207 1.527 7.2332 2.24917 7.2332H5.72958C5.98901 7.2332 6.19933 7.02294 6.19933 6.76345C6.19933 6.50396 5.98901 6.2937 5.72958 6.2937H2.24917C1.00896 6.2937 0 7.30266 0 8.54287V18.5449C0 19.7851 1.00896 20.794 2.24917 20.794H7.13902C7.39845 20.794 7.60878 20.5838 7.60878 20.3243C7.60878 20.0649 7.39845 19.8545 7.13902 19.8545H4.31344V19.0288H22.982C23.2415 19.0288 23.4518 18.8185 23.4518 18.559C23.4518 18.2995 23.2415 18.0893 22.982 18.0893H4.31344V17.2635H27.6866V18.0893H24.861C24.6016 18.0893 24.3913 18.2995 24.3913 18.559C24.3913 18.8185 24.6016 19.0288 24.861 19.0288H27.6866V19.8545H9.01797C8.75854 19.8545 8.54821 20.0649 8.54821 20.3243C8.54821 20.5838 8.75854 20.794 9.01797 20.794H29.7509C30.9911 20.794 32.0001 19.7851 32.0001 18.5449V8.54287C32 7.30273 30.991 6.2937 29.7509 6.2937Z" fill="black"/>
<path d="M28.156 10.1131C28.4154 10.1131 28.6258 9.90283 28.6258 9.64333C28.6258 9.38384 28.4154 9.17358 28.156 9.17358H26.7667C26.5073 9.17358 26.297 9.38384 26.297 9.64333C26.297 9.90283 26.5073 10.1131 26.7667 10.1131H28.156Z" fill="black"/>
<path d="M24.6239 10.1131C24.8833 10.1131 25.0936 9.90283 25.0936 9.64333C25.0936 9.38384 24.8833 9.17358 24.6239 9.17358H15.7327C15.4733 9.17358 15.2629 9.38384 15.2629 9.64333C15.2629 9.90283 15.4733 10.1131 15.7327 10.1131H24.6239Z" fill="black"/>
<path d="M8.83623 22.0508C8.5768 22.0508 8.36648 22.261 8.36648 22.5205C8.36648 22.5345 8.35138 23.9271 7.04823 24.8533C6.83678 25.0036 6.78717 25.2969 6.93749 25.5083C7.02913 25.6373 7.17381 25.706 7.32081 25.706C7.41495 25.706 7.51003 25.6778 7.59258 25.6191C9.28657 24.415 9.30604 22.5973 9.30604 22.5205C9.30598 22.261 9.09566 22.0508 8.83623 22.0508Z" fill="black"/>
<path d="M12.2002 22.0508C11.9408 22.0508 11.7305 22.261 11.7305 22.5205V25.2362C11.7305 25.4957 11.9408 25.7059 12.2002 25.7059C12.4596 25.7059 12.67 25.4957 12.67 25.2362V22.5205C12.67 22.261 12.4596 22.0508 12.2002 22.0508Z" fill="black"/>
<path d="M16.1325 22.0508C15.873 22.0508 15.6627 22.261 15.6627 22.5205V25.2362C15.6627 25.4957 15.873 25.7059 16.1325 25.7059C16.3919 25.7059 16.6022 25.4957 16.6022 25.2362V22.5205C16.6022 22.261 16.3919 22.0508 16.1325 22.0508Z" fill="black"/>
<path d="M24.9517 24.8533C23.6661 23.9396 23.6342 22.5809 23.6335 22.5184C23.6323 22.2599 23.4225 22.0508 23.1637 22.0508C22.9043 22.0508 22.694 22.261 22.694 22.5205C22.694 22.5973 22.7134 24.4151 24.4074 25.6191C24.49 25.6778 24.5851 25.7061 24.6792 25.7061C24.8261 25.706 24.9709 25.6372 25.0625 25.5084C25.2128 25.2969 25.1632 25.0036 24.9517 24.8533Z" fill="black"/>
<path d="M19.7999 22.0508C19.5405 22.0508 19.3302 22.261 19.3302 22.5205V25.2362C19.3302 25.4957 19.5405 25.7059 19.7999 25.7059C20.0594 25.7059 20.2697 25.4957 20.2697 25.2362V22.5205C20.2697 22.261 20.0594 22.0508 19.7999 22.0508Z" fill="black"/>
</g>
<defs>
<clipPath id="clip0">
<rect width="32" height="32" fill="white"/>
</clipPath>
</defs>
</svg>
