<svg width="32" height="32" viewBox="0 0 32 32" fill="none" xmlns="http://www.w3.org/2000/svg">
<g clip-path="url(#clip0)">
<path d="M30.5037 16.2386H23.8495V15.066C23.8495 14.6272 23.4926 14.2703 23.0538 14.2703H17.6773C17.2385 14.2703 16.8816 14.6272 16.8816 15.066V16.2386H16.0104V11.8741C16.0104 11.0185 15.3144 10.3224 14.4588 10.3224H12.562V1.87271C12.562 1.35988 12.1448 0.942642 11.632 0.942642H10.907V0.731423C10.9069 0.328151 10.5787 -1.52588e-05 10.1754 -1.52588e-05H6.53688C6.13361 -1.52588e-05 5.80545 0.328151 5.80545 0.731423V0.942642H5.08046C4.56763 0.942642 4.15039 1.35988 4.15039 1.87271V10.3224H1.68604C0.83045 10.3224 0.134277 11.0185 0.134277 11.8741V16.703C0.134277 16.9625 0.344557 17.1728 0.604072 17.1728C0.863586 17.1728 1.07387 16.9625 1.07387 16.703V11.8741C1.07387 11.5366 1.34848 11.2619 1.68604 11.2619H14.4587C14.7962 11.2619 15.0708 11.5366 15.0708 11.8741V28.2805C15.0708 28.618 14.7962 28.8926 14.4587 28.8926H1.68604C1.34848 28.8926 1.07387 28.618 1.07387 28.2805V18.5822C1.07387 18.3228 0.863586 18.1124 0.604072 18.1124C0.344557 18.1124 0.134277 18.3228 0.134277 18.5822V28.2805C0.134277 29.136 0.830387 29.8322 1.68604 29.8322H2.64129V31.5285C2.64129 31.788 2.85157 31.9983 3.11108 31.9983C3.3706 31.9983 3.58088 31.788 3.58088 31.5285V29.8322H8.86525V30.6378C8.86525 31.3889 9.47629 31.9999 10.2273 31.9999H30.5037C31.2547 31.9999 31.8657 31.3889 31.8657 30.6378V17.6007C31.8657 16.8496 31.2548 16.2386 30.5037 16.2386ZM6.74503 0.939573H9.96726V1.8853H6.74503V0.939573ZM5.08998 1.88223H5.80545V2.09345C5.80545 2.49678 6.13355 2.82489 6.53688 2.82489H10.1754C10.5787 2.82489 10.9069 2.49678 10.9069 2.09345V1.88223H11.6224V10.3224H5.08998V1.88223ZM27.113 17.1782V30.9938H26.173V17.1782H27.113ZM16.0104 28.2805V17.1782H20.3655C20.625 17.1782 20.8353 16.9678 20.8353 16.7084C20.8353 16.4489 20.625 16.2386 20.3655 16.2386H17.8211V15.2098H22.9098V16.2386H22.2447C21.9852 16.2386 21.7749 16.4489 21.7749 16.7084C21.7749 16.9678 21.9852 17.1782 22.2447 17.1782H25.2334V31.0603H13.5035V29.8322H14.4587C15.3143 29.8322 16.0104 29.1361 16.0104 28.2805ZM9.80483 30.6378V29.8322H12.5639V31.0604H10.2273C9.99432 31.0604 9.80483 30.8708 9.80483 30.6378ZM30.9262 30.6378C30.9262 30.8708 30.7367 31.0604 30.5037 31.0604H28.0526V17.1782H30.5037C30.7367 17.1782 30.9262 17.3677 30.9262 17.6007V30.6378Z" fill="black"/>
<path d="M18.1582 27.5634H21.6295C22.2103 27.5634 22.6828 27.0909 22.6828 26.5102V25.1431C22.6828 24.5623 22.2103 24.0898 21.6295 24.0898H18.1582C17.5775 24.0898 17.105 24.5623 17.105 25.1431V26.5102C17.105 27.0909 17.5775 27.5634 18.1582 27.5634ZM18.0446 25.1431C18.0446 25.0804 18.0956 25.0294 18.1582 25.0294H21.6295C21.6922 25.0294 21.7432 25.0804 21.7432 25.1431V26.5102C21.7432 26.5729 21.6922 26.6238 21.6295 26.6238H18.1582C18.0956 26.6238 18.0446 26.5729 18.0446 26.5102V25.1431Z" fill="black"/>
<path d="M4.11952 26.4692V13.6854C4.11952 13.426 3.90924 13.2156 3.64973 13.2156C3.39021 13.2156 3.17993 13.426 3.17993 13.6854V26.4693C3.17993 26.7287 3.39021 26.9391 3.64973 26.9391C3.90924 26.939 4.11952 26.7287 4.11952 26.4692Z" fill="black"/>
<path d="M7.06776 26.4692V13.6854C7.06776 13.426 6.85748 13.2156 6.59797 13.2156C6.33845 13.2156 6.12817 13.426 6.12817 13.6854V26.4693C6.12817 26.7287 6.33845 26.9391 6.59797 26.9391C6.85742 26.939 7.06776 26.7287 7.06776 26.4692Z" fill="black"/>
<path d="M10.0165 26.4692V13.6854C10.0165 13.426 9.80621 13.2156 9.5467 13.2156C9.28718 13.2156 9.0769 13.426 9.0769 13.6854V26.4693C9.0769 26.7287 9.28718 26.9391 9.5467 26.9391C9.80621 26.9391 10.0165 26.7287 10.0165 26.4692Z" fill="black"/>
<path d="M12.965 26.4692V13.6854C12.965 13.426 12.7547 13.2156 12.4952 13.2156C12.2357 13.2156 12.0254 13.426 12.0254 13.6854V26.4693C12.0254 26.7287 12.2357 26.9391 12.4952 26.9391C12.7547 26.939 12.965 26.7287 12.965 26.4692Z" fill="black"/>
</g>
<defs>
<clipPath id="clip0">
<rect width="32" height="32" fill="white"/>
</clipPath>
</defs>
</svg>
