<svg width="32" height="32" viewBox="0 0 32 32" fill="none" xmlns="http://www.w3.org/2000/svg">
<path d="M31.2489 3.30396H0.751125C0.336312 3.30396 0 3.64033 0 4.05508V23.2847C0 23.6995 0.336312 24.0358 0.751125 24.0358H12.1687V27.1936H10.8167C10.4018 27.1936 10.0656 27.53 10.0656 27.9448C10.0656 28.3596 10.4019 28.6959 10.8167 28.6959H21.1826C21.5974 28.6959 21.9338 28.3595 21.9338 27.9448C21.9338 27.53 21.5974 27.1936 21.1826 27.1936H19.8306V24.0358H31.2489C31.6637 24.0358 32 23.6995 32 23.2847V4.05508C32 3.64033 31.6636 3.30396 31.2489 3.30396ZM18.3282 27.1936H13.671V24.0358H18.3282V27.1936ZM30.4977 17.8793H28.6382C28.2234 17.8793 27.887 18.2157 27.887 18.6305C27.887 19.0453 28.2234 19.3816 28.6382 19.3816H30.4977V22.5335H19.0794H12.9199H1.50231V19.3816H23.7369C24.1517 19.3816 24.4881 19.0452 24.4881 18.6304C24.4881 18.2156 24.1517 17.8793 23.7369 17.8793H1.50231V4.80627H30.4977V17.8793Z" fill="black"/>
<path d="M26.2252 17.8794H26.1032C25.6884 17.8794 25.3521 18.2158 25.3521 18.6305C25.3521 19.0453 25.6884 19.3816 26.1032 19.3816H26.2252C26.64 19.3816 26.9764 19.0453 26.9764 18.6305C26.9764 18.2158 26.64 17.8794 26.2252 17.8794Z" fill="black"/>
<path d="M17.953 20.0576H14.047C13.6321 20.0576 13.2959 20.394 13.2959 20.8088C13.2959 21.2236 13.6322 21.5599 14.047 21.5599H17.953C18.3678 21.5599 18.7041 21.2236 18.7041 20.8088C18.7042 20.394 18.3678 20.0576 17.953 20.0576Z" fill="black"/>
</svg>
