<svg width="220" height="220" viewBox="0 0 220 220" fill="none" xmlns="http://www.w3.org/2000/svg">
<path d="M155.124 168.438V185.625C155.124 204.58 139.703 220 120.747 220H34.3765C15.4208 220 0 204.58 0 185.625V34.375C0 15.4201 15.4208 0 34.3765 0H120.747C139.703 0 155.124 15.4201 155.124 34.375V51.5625C155.124 56.3092 151.277 60.1562 146.53 60.1562C141.783 60.1562 137.936 56.3092 137.936 51.5625V34.375C137.936 24.8984 130.225 17.1875 120.747 17.1875H34.3765C24.8995 17.1875 17.1883 24.8984 17.1883 34.375V185.625C17.1883 195.102 24.8995 202.812 34.3765 202.812H120.747C130.225 202.812 137.936 195.102 137.936 185.625V168.438C137.936 163.691 141.783 159.844 146.53 159.844C151.277 159.844 155.124 163.691 155.124 168.438ZM213.717 95.2379L194.472 75.9943C191.115 72.6373 185.673 72.6373 182.318 75.9943C178.961 79.3495 178.961 84.7911 182.318 88.1464L196.007 101.836H92.8166C88.0697 101.836 84.2225 105.683 84.2225 110.43C84.2225 115.176 88.0697 119.023 92.8166 119.023H196.007L182.318 132.713C178.961 136.068 178.961 141.51 182.318 144.865C183.997 146.544 186.195 147.383 188.394 147.383C190.595 147.383 192.794 146.544 194.472 144.865L213.717 125.621C222.094 117.244 222.094 103.615 213.717 95.2379Z" fill="#0D0E0C"/>
</svg>
