<svg width="20" height="13" viewBox="0 0 15 10" fill="none" xmlns="http://www.w3.org/2000/svg">
<path fill-rule="evenodd" clip-rule="evenodd" d="M5.85255 6.91327C6.32092 7.16229 6.89175 7.31287 7.49917 7.31287C9.10921 7.31287 10.4192 6.27624 10.4192 5.00217C10.4192 4.52149 10.2289 4.06978 9.91423 3.69914L9.11653 4.33038C9.24826 4.52729 9.32144 4.75893 9.32144 5.00217C9.32144 5.79556 8.50179 6.44418 7.49917 6.44418C7.1918 6.44418 6.89907 6.38627 6.65025 6.28203L5.85255 6.91327ZM12.3216 1.79383C13.3827 2.55827 14.2829 3.58911 14.9562 4.82844C15.0147 4.93847 15.0147 5.06588 14.9562 5.17012C13.39 8.05415 10.6018 9.77993 7.49878 9.77993H7.49146C6.07902 9.77993 4.72513 9.41509 3.53224 8.7491L2.11248 9.87259C2.00271 9.95946 1.86366 10 1.72461 10C1.58556 10 1.4392 9.95946 1.33674 9.87259C1.15378 9.72781 1.12451 9.49616 1.27087 9.32822L1.29283 9.30505L12.1167 0.739829C12.1313 0.728247 12.1459 0.716664 12.1532 0.705082L12.1533 0.705077C12.1679 0.693496 12.1825 0.681915 12.1898 0.670334L12.8778 0.125959C13.0973 -0.0419864 13.4413 -0.0419864 13.6535 0.125959C13.8731 0.293905 13.8731 0.571884 13.6535 0.739829L12.3216 1.79383ZM4.57396 5.00444C4.57396 5.15501 4.59592 5.30558 4.62519 5.44457L1.91741 7.58733C1.18557 6.91554 0.548876 6.10477 0.04391 5.17238C-0.0146367 5.06814 -0.0146367 4.94073 0.04391 4.8307C1.61003 1.94667 4.39832 0.226676 7.49398 0.226676H7.5013C8.54782 0.226676 9.56507 0.423578 10.5018 0.794216L8.05749 2.72849C7.88185 2.70532 7.69158 2.68795 7.5013 2.68795C5.88395 2.68795 4.57396 3.72458 4.57396 5.00444Z" fill="black"/>
</svg>
