<svg width="32" height="32" viewBox="0 0 32 32" fill="none" xmlns="http://www.w3.org/2000/svg">
<path d="M31.6586 8.2615C31.2241 7.0875 29.9261 6.3845 28.6946 6.697L26.9736 5.6475C26.3236 5.254 25.5381 5.177 24.8191 5.4355L18.5231 7.7265L13.3531 0.421004C13.2231 0.237503 12.9846 0.163503 12.7741 0.240003L9.95906 1.265C9.69906 1.3595 9.56556 1.646 9.66006 1.9055L12.5641 9.894L6.30406 12.172L2.94156 8.411C2.80606 8.259 2.59056 8.204 2.39806 8.2745L0.518557 8.9585C0.258557 9.0525 0.125057 9.34 0.219557 9.599L2.95506 17.116C3.02706 17.314 3.21506 17.445 3.42456 17.445H3.43106L14.0261 17.315C14.0821 17.3145 14.1386 17.304 14.1911 17.2845L15.1296 16.942L17.8661 24.46C17.9396 24.663 18.1316 24.7895 18.3356 24.7895C18.3921 24.7895 18.4501 24.7795 18.5066 24.759L21.3261 23.7325C21.5381 23.6555 21.6721 23.446 21.6531 23.2215L20.9556 14.823L30.1656 11.469C31.1491 11.111 31.8096 10.165 31.8096 9.1145C31.8101 8.8305 31.7601 8.545 31.6586 8.2615ZM10.7706 2.034L12.7576 1.3105L17.5496 8.0805L13.5036 9.5525L10.7706 2.034ZM2.69756 13.4845L1.33006 9.7275L2.42206 9.3305L5.29256 12.5405L2.69756 13.4845ZM18.6351 23.6485L15.2146 14.2515L19.7676 12.5945L20.6256 22.9245L18.6351 23.6485ZM29.8241 10.5305L20.8701 13.791L20.7096 11.8595C20.6971 11.704 20.6126 11.5635 20.4811 11.4795C20.3496 11.3955 20.1861 11.3785 20.0406 11.4305L14.4026 13.4825C14.2781 13.528 14.1766 13.621 14.1206 13.741C14.0646 13.8615 14.0586 13.999 14.1041 14.1235L14.7881 16.0025L13.9291 16.316L3.77356 16.441L3.04056 14.4245L25.1596 6.376C25.5921 6.22 26.0651 6.2665 26.4546 6.502L26.9336 6.794L25.4656 7.3285L25.8076 8.2685L28.0266 7.461L28.3651 7.6675C28.4936 7.7465 28.6521 7.762 28.7926 7.712C29.5886 7.4285 30.4441 7.859 30.7191 8.6035C30.7796 8.7735 30.8106 8.9455 30.8106 9.1155C30.8101 9.747 30.4136 10.3155 29.8241 10.5305Z" fill="black"/>
<path d="M22.1829 8.52315L23.1221 8.18141L23.464 9.12115L22.5248 9.46288L22.1829 8.52315Z" fill="black"/>
<path d="M20.303 9.2074L21.2422 8.86566L21.5841 9.8054L20.6449 10.1471L20.303 9.2074Z" fill="black"/>
<path d="M18.4238 9.89244L19.3631 9.55071L19.705 10.4904L18.7657 10.8322L18.4238 9.89244Z" fill="black"/>
<path d="M16.5439 10.5767L17.4832 10.235L17.8251 11.1747L16.8858 11.5164L16.5439 10.5767Z" fill="black"/>
<path d="M14.6643 11.2614L15.6036 10.9197L15.9455 11.8594L15.0062 12.2012L14.6643 11.2614Z" fill="black"/>
<path d="M12.7844 11.9462L13.7237 11.6045L14.0656 12.5442L13.1263 12.8859L12.7844 11.9462Z" fill="black"/>
<path d="M10.9045 12.6304L11.8438 12.2887L12.1857 13.2284L11.2464 13.5702L10.9045 12.6304Z" fill="black"/>
<path d="M9.02075 13.321L9.96048 12.9791L10.3024 13.9188L9.36265 14.2608L9.02075 13.321Z" fill="black"/>
<path d="M7.14062 14.0053L8.08036 13.6634L8.42226 14.6031L7.48253 14.945L7.14062 14.0053Z" fill="black"/>
<path d="M9.5 22H12.592C12.799 22.5805 13.349 23 14 23C14.827 23 15.5 22.327 15.5 21.5C15.5 20.673 14.827 20 14 20C13.349 20 12.799 20.4195 12.592 21H9.5C7.8455 21 6.5 22.3455 6.5 24C6.5 25.6545 7.8455 27 9.5 27H18V26H9.5C8.397 26 7.5 25.103 7.5 24C7.5 22.897 8.397 22 9.5 22ZM14 21C14.276 21 14.5 21.2245 14.5 21.5C14.5 21.7755 14.276 22 14 22C13.724 22 13.5 21.7755 13.5 21.5C13.5 21.2245 13.724 21 14 21Z" fill="black"/>
<path d="M19 26H20V27H19V26Z" fill="black"/>
<path d="M25.25 26H21V27H25.25C25.9395 27 26.5 27.561 26.5 28.25C26.5 28.939 25.9395 29.5 25.25 29.5H9.5V30.5H25.25C26.4905 30.5 27.5 29.4905 27.5 28.25C27.5 27.0095 26.4905 26 25.25 26Z" fill="black"/>
<path d="M2.5 28.5C1.673 28.5 1 29.173 1 30C1 30.827 1.673 31.5 2.5 31.5C3.151 31.5 3.701 31.0805 3.908 30.5H8.5V29.5H3.908C3.701 28.9195 3.151 28.5 2.5 28.5ZM2.5 30.5C2.224 30.5 2 30.2755 2 30C2 29.7245 2.224 29.5 2.5 29.5C2.776 29.5 3 29.7245 3 30C3 30.2755 2.776 30.5 2.5 30.5Z" fill="black"/>
</svg>
