<svg width="32" height="32" viewBox="0 0 32 32" fill="none" xmlns="http://www.w3.org/2000/svg">
<path d="M31.4667 18.1333H30.9333V16.5333C30.9319 15.4742 30.304 14.5164 29.3333 14.0928V5.86663C29.3332 5.65463 29.2076 5.4629 29.0133 5.3781C29.2214 5.04463 29.3322 4.6597 29.3333 4.26663C29.3333 3.08843 28.3782 2.1333 27.2 2.1333C26.0218 2.1333 25.0667 3.08843 25.0667 4.26663C25.0689 4.64223 25.1713 5.01043 25.3632 5.3333H6.6368C6.82873 5.01043 6.93113 4.64223 6.93333 4.26663C6.93333 3.08843 5.9782 2.1333 4.8 2.1333C3.6218 2.1333 2.66667 3.08843 2.66667 4.26663C2.6678 4.6597 2.7786 5.04463 2.98667 5.3781C2.7924 5.4629 2.6668 5.65463 2.66667 5.86663V14.0928C1.696 14.5164 1.06807 15.4742 1.06667 16.5333V18.1333H0.533333C0.2388 18.1333 0 18.3721 0 18.6666V26.1333C0 26.4278 0.2388 26.6666 0.533333 26.6666H1.06667V29.3333C1.06667 29.6278 1.30547 29.8666 1.6 29.8666H3.73333C4.02787 29.8666 4.26667 29.6278 4.26667 29.3333V26.6666H27.7333V29.3333C27.7333 29.6278 27.9721 29.8666 28.2667 29.8666H30.4C30.6945 29.8666 30.9333 29.6278 30.9333 29.3333V26.6666H31.4667C31.7612 26.6666 32 26.4278 32 26.1333V18.6666C32 18.3721 31.7612 18.1333 31.4667 18.1333ZM27.2 3.19997C27.7891 3.19997 28.2667 3.6775 28.2667 4.26663C28.2667 4.85577 27.7891 5.3333 27.2 5.3333C26.6109 5.3333 26.1333 4.85577 26.1333 4.26663C26.1333 3.6775 26.6109 3.19997 27.2 3.19997ZM4.8 3.19997C5.38913 3.19997 5.86667 3.6775 5.86667 4.26663C5.86667 4.85577 5.38913 5.3333 4.8 5.3333C4.21087 5.3333 3.73333 4.85577 3.73333 4.26663C3.73333 3.6775 4.21087 3.19997 4.8 3.19997ZM3.73333 6.39997H28.2667V13.8666H26.1195C26.4724 13.4078 26.6647 12.8456 26.6667 12.2666V11.2C26.6649 9.72797 25.472 8.53503 24 8.5333H19.7333C18.2613 8.53503 17.0684 9.72797 17.0667 11.2V12.2666C17.0686 12.8456 17.2609 13.4078 17.6139 13.8666H14.3861C14.7391 13.4078 14.9314 12.8456 14.9333 12.2666V11.2C14.9316 9.72797 13.7387 8.53503 12.2667 8.5333H8C6.528 8.53503 5.33507 9.72797 5.33333 11.2V12.2666C5.33527 12.8456 5.5276 13.4078 5.88053 13.8666H3.73333V6.39997ZM25.6 11.2V12.2666C25.6 13.1503 24.8837 13.8666 24 13.8666H19.7333C18.8497 13.8666 18.1333 13.1503 18.1333 12.2666V11.2C18.1333 10.3163 18.8497 9.59997 19.7333 9.59997H24C24.8837 9.59997 25.6 10.3163 25.6 11.2ZM13.8667 11.2V12.2666C13.8667 13.1503 13.1503 13.8666 12.2667 13.8666H8C7.11633 13.8666 6.4 13.1503 6.4 12.2666V11.2C6.4 10.3163 7.11633 9.59997 8 9.59997H12.2667C13.1503 9.59997 13.8667 10.3163 13.8667 11.2ZM2.13333 16.5333C2.13333 15.6496 2.84967 14.9333 3.73333 14.9333H28.2667C29.1503 14.9333 29.8667 15.6496 29.8667 16.5333V18.1333H2.13333V16.5333ZM3.2 28.8H2.13333V26.6666H3.2V28.8ZM29.8667 28.8H28.8V26.6666H29.8667V28.8ZM30.9333 25.6H1.06667V19.2H30.9333V25.6Z" fill="black"/>
<path d="M4.79997 23.4666H2.66663C2.3721 23.4666 2.1333 23.7054 2.1333 23.9999C2.1333 24.2944 2.3721 24.5332 2.66663 24.5332H4.79997C5.0945 24.5332 5.3333 24.2944 5.3333 23.9999C5.3333 23.7054 5.0945 23.4666 4.79997 23.4666Z" fill="black"/>
<path d="M29.3334 23.4666H6.93336C6.63882 23.4666 6.40002 23.7054 6.40002 23.9999C6.40002 24.2944 6.63882 24.5332 6.93336 24.5332H29.3334C29.6279 24.5332 29.8667 24.2944 29.8667 23.9999C29.8667 23.7054 29.6279 23.4666 29.3334 23.4666Z" fill="black"/>
</svg>
