<svg width="32" height="32" viewBox="0 0 32 32" fill="none" xmlns="http://www.w3.org/2000/svg">
<path d="M13.0137 12.7255C12.8844 12.5962 12.7049 12.5217 12.5219 12.5217C12.339 12.5217 12.1595 12.5962 12.0301 12.7255C11.9007 12.8549 11.8263 13.0344 11.8263 13.2174C11.8263 13.4003 11.9007 13.5798 12.0301 13.7092C12.1595 13.8385 12.339 13.913 12.5219 13.913C12.7049 13.913 12.8844 13.8385 13.0137 13.7092C13.1431 13.5798 13.2175 13.4003 13.2175 13.2174C13.2175 13.0344 13.1431 12.8549 13.0137 12.7255Z" fill="black"/>
<path d="M25.0436 0H6.95661C6.57242 0 6.26099 0.311438 6.26099 0.695625V13.2174V31.3044C6.26099 31.6886 6.57242 32 6.95661 32H25.0435C25.4277 32 25.7392 31.6886 25.7392 31.3044V13.2174V0.695625C25.7392 0.311438 25.4278 0 25.0436 0ZM24.3479 12.5218H14.6088C14.2246 12.5218 13.9132 12.8332 13.9132 13.2174C13.9132 13.6016 14.2246 13.913 14.6088 13.913H24.3479V30.6086H7.6523V13.913H10.4349C10.8191 13.913 11.1305 13.6016 11.1305 13.2174C11.1305 12.8332 10.8191 12.5218 10.4349 12.5218H7.6523V1.39131H24.3479V12.5218Z" fill="black"/>
<path d="M22.2609 3.47827H20.2087C19.8245 3.47827 19.5131 3.78971 19.5131 4.1739V9.73915C19.5131 10.1233 19.8245 10.4348 20.2087 10.4348H22.2609C22.6451 10.4348 22.9565 10.1233 22.9565 9.73915V4.17396C22.9565 3.78971 22.6451 3.47827 22.2609 3.47827ZM21.5652 9.04353H20.9044V4.86959H21.5652V9.04353H21.5652Z" fill="black"/>
<path d="M22.2438 15.3044H20.1916C19.8074 15.3044 19.496 15.6159 19.496 16.0001V21.5653C19.496 21.9494 19.8074 22.2609 20.1916 22.2609H22.2438C22.628 22.2609 22.9394 21.9494 22.9394 21.5653V16.0001C22.9394 15.6159 22.628 15.3044 22.2438 15.3044ZM21.5481 20.8696H20.8872V16.6957H21.5481V20.8696Z" fill="black"/>
</svg>
