<svg width="20" height="13" viewBox="0 0 15 10" fill="none" xmlns="http://www.w3.org/2000/svg">
<path fill-rule="evenodd" clip-rule="evenodd" d="M4.57324 5C4.57324 6.33333 5.883 7.41818 7.50007 7.41818C9.10983 7.41818 10.4196 6.33333 10.4196 5C10.4196 3.6606 9.10983 2.57575 7.50007 2.57575C5.883 2.57575 4.57324 3.6606 4.57324 5ZM11.8024 1.27879C13.0829 2.10303 14.1732 3.30909 14.9561 4.81818C15.0146 4.93333 15.0146 5.06667 14.9561 5.17576C13.3902 8.19394 10.6024 10 7.5 10H7.49268C4.39756 10 1.60976 8.19394 0.0439024 5.17576C-0.0146341 5.06667 -0.0146341 4.93333 0.0439024 4.81818C1.60976 1.8 4.39756 0 7.49268 0H7.5C9.05122 0 10.522 0.448485 11.8024 1.27879ZM7.50066 6.50778C8.50309 6.50778 9.32261 5.82899 9.32261 4.99869C9.32261 4.16233 8.50309 3.48354 7.50066 3.48354C7.41285 3.48354 7.32505 3.4896 7.24456 3.50172C7.21529 4.16839 6.55675 4.70172 5.74456 4.70172H5.70797C5.68602 4.79869 5.67139 4.89566 5.67139 4.99869C5.67139 5.82899 6.4909 6.50778 7.50066 6.50778Z" fill="black"/>
</svg>
