<svg width="32" height="32" viewBox="0 0 32 32" fill="none" xmlns="http://www.w3.org/2000/svg">
<path d="M22.3808 14.4897L13.25 20.1153C13.0455 20.2406 12.7837 20.2286 12.5923 20.0806C11.7248 19.4126 10.9497 18.7352 10.4326 18.1658C10.4326 18.1658 9.98717 17.7098 9.79439 17.4205C9.48309 17.0258 9.33329 16.5098 9.33329 16.0084C9.33329 15.4457 9.49741 14.9137 9.82435 14.4883C9.8986 14.4123 10.1812 14.0776 10.4483 13.8043C12.0061 12.1029 16.0726 9.29206 18.2114 8.44002C18.5227 8.30268 19.3537 8.016 19.7849 8C20.2004 8 20.6016 8.09067 20.9871 8.28935C21.4613 8.56269 21.8325 8.98672 22.0409 9.48941C22.175 9.83876 22.3821 10.8868 22.3821 10.9175C22.5163 11.6655 22.6166 12.7162 22.6661 13.943C22.6752 14.163 22.5645 14.3763 22.3808 14.4897" fill="#F68247"/>
<path opacity="0.4" d="M21.7702 17.5196C22.1727 17.2703 22.6794 17.589 22.6599 18.0677C22.6117 19.1904 22.5283 20.1798 22.4267 20.9158C22.4111 20.9318 22.204 22.2372 21.9656 22.6786C21.5501 23.4986 20.7347 24 19.8581 24H19.7851C19.2198 23.9853 18.0176 23.4839 18.0176 23.4533C17.4119 23.2012 16.6213 22.7746 15.7707 22.2612C15.3878 22.0292 15.3786 21.4598 15.7616 21.2238L21.7702 17.5196Z" fill="#AAAAAA"/>
</svg>
