<svg width="32" height="32" viewBox="0 0 32 32" fill="none" xmlns="http://www.w3.org/2000/svg">
<path d="M9.61915 17.5103L18.75 11.8847C18.9545 11.7594 19.2163 11.7714 19.4077 11.9194C20.2752 12.5874 21.0503 13.2648 21.5674 13.8342C21.5674 13.8342 22.0128 14.2902 22.2056 14.5795C22.5169 14.9742 22.6667 15.4902 22.6667 15.9916C22.6667 16.5543 22.5026 17.0863 22.1756 17.5117C22.1014 17.5877 21.8188 17.9224 21.5517 18.1957C19.9939 19.8971 15.9274 22.7079 13.7886 23.56C13.4773 23.6973 12.6463 23.984 12.2151 24C11.7996 24 11.3984 23.9093 11.0129 23.7107C10.5387 23.4373 10.1675 23.0133 9.95912 22.5106C9.82495 22.1612 9.61785 21.1132 9.61785 21.0825C9.48369 20.3345 9.38339 19.2838 9.3339 18.057C9.32478 17.837 9.4355 17.6237 9.61915 17.5103" fill="#2568ef"/>
<path d="M10.2298 14.4804C9.8273 14.7297 9.32061 14.411 9.34015 13.9323C9.38834 12.8096 9.4717 11.8202 9.5733 11.0842C9.58893 11.0682 9.79604 9.7628 10.0344 9.32144C10.4499 8.5014 11.2653 8.00004 12.1419 8.00004H12.2149C12.7802 8.01471 13.9824 8.51607 13.9824 8.54674C14.5881 8.79875 15.3787 9.22544 16.2293 9.7388C16.6122 9.97081 16.6214 10.5402 16.2384 10.7762L10.2298 14.4804Z" fill="#2568ef"/>
</svg>
